<!--?xml version="1.0" standalone="no"?-->

<svg version="1.1" width="1015.0" height="151.0" viewBox="0 0 1014.0 150.0" xmlns="http://www.w3.org/2000/svg">
  <rect width="1015" height="151" fill="#000000" />
  <g stroke-linecap="round" stroke-linejoin="round" fill="none" transform="matrix(1.500000,0,0,-1.500000,7.500000,34.500000)">
	<g stroke-width="1.4" stroke="#ffffff">
      <polyline points=" 0,0 6,18 12,0"></polyline>
      <polyline points=" 3,9 9,9"></polyline>
      <polyline points=" 36,2 39,0 45,0 48,3 48,6 45,9 39,9 36,12 36,15 39,18 45,18 48,16"></polyline>
      <polyline points=" 60,0 60,18"></polyline>
      <polyline points=" 54,18 66,18"></polyline>
      <polyline points=" 72,0 72,18 81,18 84,15 84,11 81,8 72,8"></polyline>
      <polyline points=" 79,8 84,0"></polyline>
      <polyline points=" 90,0 96,18 102,0"></polyline>
      <polyline points=" 93,9 99,9"></polyline>
      <polyline points=" 108,0 108,18 120,0 120,18"></polyline>
      <polyline points=" 138,15 135,18 129,18 126,15 126,3 129,0 135,0 138,3 138,8 131,8"></polyline>
      <polyline points=" 144,0 144,18 156,18"></polyline>
      <polyline points=" 144,9 153,9"></polyline>
      <polyline points=" 144,0 156,0"></polyline>
      <polyline points=" 192,15 189,18 183,18 180,15 180,3 183,0 189,0 192,3 192,8 185,8"></polyline>
      <polyline points=" 198,0 204,18 210,0"></polyline>
      <polyline points=" 201,9 207,9"></polyline>
      <polyline points=" 216,0 216,18 222,5 228,18 228,0"></polyline>
      <polyline points=" 234,0 234,18 246,18"></polyline>
      <polyline points=" 234,9 243,9"></polyline>
      <polyline points=" 234,0 246,0"></polyline>
      <polyline points=" 258,0 258,0 258,0"></polyline>
      <polyline points=" 6,-36 6,-18"></polyline>
      <polyline points=" 0,-18 12,-18"></polyline>
      <polyline points=" 18,-36 18,-18"></polyline>
      <polyline points=" 30,-36 30,-18"></polyline>
      <polyline points=" 18,-27 30,-27"></polyline>
      <polyline points=" 36,-36 36,-18 48,-18"></polyline>
      <polyline points=" 36,-27 45,-27"></polyline>
      <polyline points=" 36,-36 48,-36"></polyline>
      <polyline points=" 75,-36 72,-33 72,-21 75,-18 81,-18 84,-21 84,-33 81,-36 75,-36"></polyline>
      <polyline points=" 90,-36 90,-18 102,-36 102,-18"></polyline>
      <polyline points=" 108,-36 108,-18"></polyline>
      <polyline points=" 108,-36 120,-36"></polyline>
      <polyline points=" 132,-36 132,-29 126,-18"></polyline>
      <polyline points=" 132,-29 138,-18"></polyline>
      <polyline points=" 162,-18 165,-36 168,-22 171,-36 174,-18"></polyline>
      <polyline points=" 182,-36 190,-36"></polyline>
      <polyline points=" 186,-36 186,-18"></polyline>
      <polyline points=" 182,-18 190,-18"></polyline>
      <polyline points=" 198,-36 198,-18 210,-36 210,-18"></polyline>
      <polyline points=" 216,-36 216,-18 228,-36 228,-18"></polyline>
      <polyline points=" 236,-36 244,-36"></polyline>
      <polyline points=" 240,-36 240,-18"></polyline>
      <polyline points=" 236,-18 244,-18"></polyline>
      <polyline points=" 252,-36 252,-18 264,-36 264,-18"></polyline>
      <polyline points=" 282,-21 279,-18 273,-18 270,-21 270,-33 273,-36 279,-36 282,-33 282,-28 275,-28"></polyline>
      <polyline points=" 306,-36 306,-18 312,-31 318,-18 318,-36"></polyline>
      <polyline points=" 327,-36 324,-33 324,-21 327,-18 333,-18 336,-21 336,-33 333,-36 327,-36"></polyline>
      <polyline points=" 342,-18 348,-36 354,-18"></polyline>
      <polyline points=" 360,-36 360,-18 372,-18"></polyline>
      <polyline points=" 360,-27 369,-27"></polyline>
      <polyline points=" 360,-36 372,-36"></polyline>
      <polyline points=" 398,-36 406,-36"></polyline>
      <polyline points=" 402,-36 402,-18"></polyline>
      <polyline points=" 398,-18 406,-18"></polyline>
      <polyline points=" 414,-34 417,-36 423,-36 426,-33 426,-30 423,-27 417,-27 414,-24 414,-21 417,-18 423,-18 426,-20"></polyline>
      <polyline points=" 450,-36 450,-18 462,-36 462,-18"></polyline>
      <polyline points=" 471,-36 468,-33 468,-21 471,-18 477,-18 480,-21 480,-33 477,-36 471,-36"></polyline>
      <polyline points=" 492,-36 492,-18"></polyline>
      <polyline points=" 486,-18 498,-18"></polyline>
      <polyline points=" 528,-36 528,-18"></polyline>
      <polyline points=" 522,-18 534,-18"></polyline>
      <polyline points=" 543,-36 540,-33 540,-21 543,-18 549,-18 552,-21 552,-33 549,-36 543,-36"></polyline>
      <polyline points=" 576,-36 576,-18 585,-18 588,-21 588,-25 585,-28 576,-28"></polyline>
      <polyline points=" 594,-36 594,-18"></polyline>
      <polyline points=" 594,-36 606,-36"></polyline>
      <polyline points=" 612,-36 618,-18 624,-36"></polyline>
      <polyline points=" 615,-27 621,-27"></polyline>
      <polyline points=" 636,-36 636,-29 630,-18"></polyline>
      <polyline points=" 636,-29 642,-18"></polyline>
      <polyline points=" 654,-36 654,-36 654,-36"></polyline>
      <polyline points=" 0,-72 0,-54"></polyline>
      <polyline points=" 12,-72 12,-54"></polyline>
      <polyline points=" 0,-63 12,-63"></polyline>
      <polyline points=" 21,-72 18,-69 18,-57 21,-54 27,-54 30,-57 30,-69 27,-72 21,-72"></polyline>
      <polyline points=" 36,-54 39,-72 42,-58 45,-72 48,-54"></polyline>
      <polyline points=" 72,-72 78,-54 84,-72"></polyline>
      <polyline points=" 75,-63 81,-63"></polyline>
      <polyline points=" 90,-72 90,-54 99,-54 102,-57 102,-60 99,-63 90,-63"></polyline>
      <polyline points=" 99,-63 102,-66 102,-69 99,-72 90,-72"></polyline>
      <polyline points=" 111,-72 108,-69 108,-57 111,-54 117,-54 120,-57 120,-69 117,-72 111,-72"></polyline>
      <polyline points=" 126,-54 126,-69 129,-72 135,-72 138,-69 138,-54"></polyline>
      <polyline points=" 150,-72 150,-54"></polyline>
      <polyline points=" 144,-54 156,-54"></polyline>
      <polyline points=" 180,-72 186,-54 192,-72"></polyline>
      <polyline points=" 183,-63 189,-63"></polyline>
      <polyline points=" 216,-72 216,-54 228,-72 228,-54"></polyline>
      <polyline points=" 236,-72 244,-72"></polyline>
      <polyline points=" 240,-72 240,-54"></polyline>
      <polyline points=" 236,-54 244,-54"></polyline>
      <polyline points=" 264,-69 261,-72 255,-72 252,-69 252,-57 255,-54 261,-54 264,-57"></polyline>
      <polyline points=" 270,-72 270,-54 282,-54"></polyline>
      <polyline points=" 270,-63 279,-63"></polyline>
      <polyline points=" 270,-72 282,-72"></polyline>
      <polyline points=" 318,-57 315,-54 309,-54 306,-57 306,-69 309,-72 315,-72 318,-69 318,-64 311,-64"></polyline>
      <polyline points=" 324,-72 330,-54 336,-72"></polyline>
      <polyline points=" 327,-63 333,-63"></polyline>
      <polyline points=" 342,-72 342,-54 348,-67 354,-54 354,-72"></polyline>
      <polyline points=" 360,-72 360,-54 372,-54"></polyline>
      <polyline points=" 360,-63 369,-63"></polyline>
      <polyline points=" 360,-72 372,-72"></polyline>
      <polyline points=" 399,-72 396,-69 396,-57 399,-54 405,-54 408,-57 408,-69 405,-72 399,-72"></polyline>
      <polyline points=" 414,-72 414,-54 426,-54"></polyline>
      <polyline points=" 414,-63 423,-63"></polyline>
      <polyline points=" 462,-69 459,-72 453,-72 450,-69 450,-57 453,-54 459,-54 462,-57"></polyline>
      <polyline points=" 468,-72 468,-54"></polyline>
      <polyline points=" 480,-72 480,-54"></polyline>
      <polyline points=" 468,-63 480,-63"></polyline>
      <polyline points=" 486,-72 486,-54 498,-54"></polyline>
      <polyline points=" 486,-63 495,-63"></polyline>
      <polyline points=" 486,-72 498,-72"></polyline>
      <polyline points=" 504,-70 507,-72 513,-72 516,-69 516,-66 513,-63 507,-63 504,-60 504,-57 507,-54 513,-54 516,-56"></polyline>
      <polyline points=" 522,-70 525,-72 531,-72 534,-69 534,-66 531,-63 525,-63 522,-60 522,-57 525,-54 531,-54 534,-56"></polyline>
      <polyline points=" 540,-57 543,-54 549,-54 552,-57 552,-61 546,-65 546,-68"></polyline>
      <polyline points=" 546,-72 546,-72"></polyline>
	</g>
  </g>
</svg>
